<svg xmlns="http://www.w3.org/2000/svg" xmlns:xlink="http://www.w3.org/1999/xlink" version="1.1" width="202" height="165" viewBox="0 0 202 165">
<defs>
<path id="font_1_1" d="M.6589966 .23046875C.6759949 .23046875 .69400027 .23046875 .69400027 .25045777 .69400027 .27046205 .6759949 .27046205 .6589966 .27046205H.117996219C.100997928 .27046205 .08299255 .27046205 .08299255 .25045777 .08299255 .23046875 .100997928 .23046875 .117996219 .23046875H.6589966Z"/>
<path id="font_2_1" d="M.2939911 .64004519C.2939911 .66400149 .2939911 .6660156 .2709961 .6660156 .20899964 .60227969 .12098694 .60227969 .08898926 .60227969V.57128909C.10899353 .57128909 .16799927 .57128909 .21998596 .5972748V.07902527C.21998596 .042999269 .21699524 .0309906 .1269989 .0309906H.09498596V0C.12998963 .0029907227 .21699524 .0029907227 .25698854 .0029907227 .29699708 .0029907227 .38398744 .0029907227 .4189911 0V.0309906H.3869934C.29699708 .0309906 .2939911 .041992189 .2939911 .07902527V.64004519Z"/>
<path id="font_2_2" d="M.1269989 .07699585 .23298645 .18003845C.3889923 .31811524 .44898988 .3721466 .44898988 .47216798 .44898988 .5860901 .35899354 .6660156 .23699951 .6660156 .12399292 .6660156 .049987794 .57411196 .049987794 .48516847 .049987794 .4291687 .099990848 .4291687 .102996829 .4291687 .11999512 .4291687 .15499878 .44117738 .15499878 .48217774 .15499878 .5081787 .13699341 .5341797 .101989749 .5341797 .09399414 .5341797 .09199524 .5341797 .08898926 .5331726 .11199951 .59806826 .1659851 .63500979 .22399903 .63500979 .31498719 .63500979 .35798646 .5541382 .35798646 .47216798 .35798646 .39215089 .30799867 .31311036 .25299073 .25108338L.06098938 .036987306C.049987794 .025985718 .049987794 .023986817 .049987794 0H.42099L.44898988 .17404175H.42399598C.4189911 .14402771 .4119873 .1000061 .4019928 .084991458 .394989 .07699585 .32899476 .07699585 .30699159 .07699585H.1269989Z"/>
<path id="font_2_3" d="M.2899933 .35191346C.37199403 .37893678 .42999269 .4490509 .42999269 .52809146 .42999269 .6100464 .34199525 .6660156 .24598694 .6660156 .14498902 .6660156 .068984989 .60606387 .068984989 .53009036 .068984989 .49710084 .09098816 .47808839 .11999512 .47808839 .15098572 .47808839 .17098999 .50009158 .17098999 .5290985 .17098999 .57910159 .12399292 .57910159 .10899353 .57910159 .13999939 .62802127 .20599365 .64100649 .24198914 .64100649 .2829895 .64100649 .33799745 .6190338 .33799745 .5290985 .33799745 .51708987 .33599855 .45906068 .30999757 .4149933 .27999879 .36691285 .24598694 .36390687 .22099304 .36291505 .21299744 .36190797 .18899536 .35990907 .18199158 .35990907 .17399597 .35890199 .16699219 .35791017 .16699219 .3479004 .16699219 .33691407 .17399597 .33691407 .19099427 .33691407H.23498535C.31698609 .33691407 .35398866 .2686615 .35398866 .17037964 .35398866 .034469606 .2849884 .0055389406 .24099732 .0055389406 .19799805 .0055389406 .12298584 .022491456 .08799744 .08137512 .12298584 .07637024 .1539917 .09837341 .1539917 .1363678 .1539917 .17237854 .1269989 .19238281 .09799194 .19238281 .07398987 .19238281 .041992189 .17837525 .041992189 .1343689 .041992189 .043441774 .1349945-.022460938 .24398804-.022460938 .3659973-.022460938 .45700074 .06838989 .45700074 .17037964 .45700074 .252594 .3939972 .33088685 .2899933 .35191346Z"/>
<path id="font_2_4" d="M.2939911 .16503906V.07800293C.2939911 .041992189 .2919922 .0309906 .21798706 .0309906H.19699097V0C.23799134 .0029907227 .2899933 .0029907227 .33198548 .0029907227 .37399293 .0029907227 .4269867 .0029907227 .46798707 0V.0309906H.44699098C.37298585 .0309906 .37098695 .041992189 .37098695 .07800293V.16503906H.47099305V.19602967H.37098695V.65075686C.37098695 .67074587 .37098695 .6767578 .35499574 .6767578 .34599305 .6767578 .34298707 .6767578 .33499146 .66474917L.027999878 .19602967V.16503906H.2939911M.2999878 .19602967H.055999757L.2999878 .5688019V.19602967Z"/>
<path id="font_2_5" d="M.44898988 .20022583C.44898988 .3193512 .36698915 .41944886 .25898744 .41944886 .21099854 .41944886 .16799927 .40345765 .13198853 .36842347V.5637665C.1519928 .5577698 .18499756 .55078127 .21699524 .55078127 .33999635 .55078127 .4099884 .6417694 .4099884 .6547699 .4099884 .6607666 .40699769 .6657715 .3999939 .6657715 .39898683 .6657715 .39698792 .6657715 .3919983 .66278079 .37199403 .6537781 .32299806 .6337738 .2559967 .6337738 .21598816 .6337738 .16999817 .6407776 .12298584 .6617737 .114990238 .66477969 .11299133 .66477969 .11099243 .66477969 .100997928 .66477969 .100997928 .6567688 .100997928 .6407776V.34439088C.100997928 .32637025 .100997928 .31835938 .114990238 .31835938 .12199402 .31835938 .12399292 .32136537 .12799073 .32736207 .13899231 .3433838 .17599488 .39746095 .25698854 .39746095 .30899049 .39746095 .33399964 .35139466 .34199525 .33337403 .35798646 .29632569 .3600006 .25727845 .3600006 .20722962 .3600006 .17222595 .3600006 .11222839 .33599855 .07035828 .31199647 .031463624 .2749939 .0055389406 .22898865 .0055389406 .1559906 .0055389406 .09899902 .058380128 .08198547 .11723328 .084991458 .1162262 .08799744 .115234378 .09899902 .115234378 .13198853 .115234378 .14898682 .14022827 .14898682 .16423035 .14898682 .18823242 .13198853 .21322632 .09899902 .21322632 .084991458 .21322632 .049987794 .20622254 .049987794 .16023255 .049987794 .07434082 .11898804-.022460938 .23098755-.022460938 .34700013-.022460938 .44898988 .073349 .44898988 .20022583Z"/>
<clipPath id="clip_3">
<path transform="matrix(1.00006,0,0,-1.00006,6.5825579,163.19083)" d="M0 0H194.26912V161.3842H0Z"/>
</clipPath>
<path id="font_4_1" d="M.33399964 .30233766C.33999635 .32835389 .36299134 .42037965 .43299867 .42037965 .43798829 .42037965 .46199037 .42037965 .48298646 .40734864 .45498658 .402359 .43499757 .37734986 .43499757 .35334779 .43499757 .33735658 .44599916 .31835938 .47299195 .31835938 .49499513 .31835938 .5269928 .3363495 .5269928 .37635804 .5269928 .42837525 .46798707 .4423828 .43399049 .4423828 .37599183 .4423828 .34098817 .38935853 .32899476 .36634828 .3039856 .43237306 .25 .4423828 .22099304 .4423828 .116989139 .4423828 .05999756 .3133545 .05999756 .28834535 .05999756 .27833558 .069992069 .27833558 .07199097 .27833558 .07998657 .27833558 .08299255 .28033448 .084991458 .28933717 .11898804 .39535523 .18499756 .42037965 .21899414 .42037965 .23799134 .42037965 .272995 .4113617 .272995 .35334779 .272995 .32235719 .2559967 .25532533 .21899414 .11528015 .20298767 .053268434 .16799927 .011245728 .12399292 .011245728 .117996219 .011245728 .09498596 .011245728 .07398987 .024276734 .09899902 .029266358 .12098694 .05027771 .12098694 .07827759 .12098694 .105270389 .09899902 .11328125 .083999637 .11328125 .053985597 .11328125 .0289917 .08728027 .0289917 .055267335 .0289917 .009246826 .07899475-.0107421879 .12298584-.0107421879 .18899536-.0107421879 .22499085 .059280397 .22799683 .0652771 .23999024 .028274537 .27598573-.0107421879 .33599855-.0107421879 .43899537-.0107421879 .49598695 .118270877 .49598695 .14328003 .49598695 .1532898 .4869995 .1532898 .48399354 .1532898 .47499085 .1532898 .47299195 .14929199 .47099305 .14228821 .43798829 .03527832 .36999513 .011245728 .33799745 .011245728 .29899598 .011245728 .2829895 .043273927 .2829895 .07727051 .2829895 .09927368 .2889862 .121276859 .2999878 .16529846L.33399964 .30233766Z"/>
<path id="font_4_2" d="M.48599244 .38136292C.48999024 .39537049 .48999024 .39736939 .48999024 .40437318 .48999024 .42237855 .47599793 .43138124 .46099855 .43138124 .45098878 .43138124 .43499757 .42536927 .42599488 .41036988 .42399598 .405365 .41600038 .37435914 .4119873 .35635377 .40499879 .33035279 .397995 .30334474 .3919983 .27633668L.34700013 .09628296C.34298707 .08126831 .2999878 .011245728 .23399353 .011245728 .18299866 .011245728 .17199707 .055267335 .17199707 .0922699 .17199707 .1382904 .18899536 .20030213 .22299195 .28833009 .23899842 .3293457 .24299622 .3403473 .24299622 .36035157 .24299622 .405365 .21099854 .4423828 .16099549 .4423828 .06599426 .4423828 .0289917 .29733277 .0289917 .28833009 .0289917 .27833558 .038986207 .27833558 .040985109 .27833558 .050994874 .27833558 .051986696 .28033448 .056991579 .29634095 .083999637 .3903656 .12399292 .42037965 .1579895 .42037965 .1659851 .42037965 .18299866 .42037965 .18299866 .3883667 .18299866 .36335755 .17298889 .3373413 .1659851 .31834413 .12599182 .21231079 .10798645 .1552887 .10798645 .10827637 .10798645 .019256592 .17098999-.0107421879 .22999573-.0107421879 .2689972-.0107421879 .30299378 .0062561037 .33099366 .03425598 .31799317-.017745972 .30599977-.06674194 .2659912-.11973572 .23999024-.15385437 .20199585-.18309021 .1559906-.18309021 .14199829-.18309021 .09700012-.18005371 .07998657-.14074707 .09599304-.14074707 .10899353-.14074707 .12298584-.1287384 .1329956-.11973572 .14299011-.10673523 .14299011-.08773804 .14299011-.056747438 .115997318-.052734376 .10598755-.052734376 .08299255-.052734376 .049987794-.068740848 .049987794-.11773682 .049987794-.16796875 .09399414-.20507813 .1559906-.20507813 .25898744-.20507813 .3619995-.11373901 .3899994-.00074768069L.48599244 .38136292Z"/>
</defs>
<path transform="matrix(1.00006,0,0,-1.00006,6.5825579,163.19083)" stroke-width=".3985" stroke-linecap="butt" stroke-miterlimit="10" stroke-linejoin="miter" fill="none" stroke="#cbcbcb" d="M0 0V161.3842M55.50546 0V161.3842M83.2582 0V161.3842M111.01093 0V161.3842M138.76366 0V161.3842M166.51639 0V161.3842"/>
<path transform="matrix(1.00006,0,0,-1.00006,6.5825579,163.19083)" stroke-width=".3985" stroke-linecap="butt" stroke-miterlimit="10" stroke-linejoin="miter" fill="none" stroke="#cbcbcb" d="M0 16.13841H194.26912M0 48.41525H194.26912M0 112.96893H194.26912"/>
<path transform="matrix(1.00006,0,0,-1.00006,6.5825579,163.19083)" stroke-width=".19925" stroke-linecap="butt" stroke-miterlimit="10" stroke-linejoin="miter" fill="none" stroke="#929292" d="M0 78.56621V82.81796M55.50546 78.56621V82.81796M83.2582 78.56621V82.81796M111.01093 78.56621V82.81796M138.76366 78.56621V82.81796M166.51639 78.56621V82.81796"/>
<path transform="matrix(1.00006,0,0,-1.00006,6.5825579,163.19083)" stroke-width=".19925" stroke-linecap="butt" stroke-miterlimit="10" stroke-linejoin="miter" fill="none" stroke="#929292" d="M25.62674 16.13841H29.8787M25.62674 48.41525H29.8787M25.62674 112.96893H29.8787"/>
<path transform="matrix(1.00006,0,0,-1.00006,6.5825579,163.19083)" stroke-width=".3985" stroke-linecap="butt" stroke-miterlimit="10" stroke-linejoin="miter" fill="none" stroke="#000000" d="M0 80.6921H192.2766"/>
<path transform="matrix(1.00006,0,0,-1.00006,198.8707,82.49389)" d="M1.99252 0-1.19551 1.59401 0 0-1.19551-1.59401"/>
<path transform="matrix(1.00006,0,0,-1.00006,6.5825579,163.19083)" stroke-width=".3985" stroke-linecap="butt" stroke-miterlimit="10" stroke-linejoin="miter" fill="none" stroke="#000000" d="M27.75273 0V159.39168"/>
<path transform="matrix(0,-1.00006,-1.00006,-0,34.336954,3.7895966)" d="M1.99252 0-1.19551 1.59401 0 0-1.19551-1.59401"/>
<use data-text="&#x2212;" xlink:href="#font_1_1" transform="matrix(9.963197,0,0,-9.963197,.21717835,94.560718)"/>
<use data-text="1" xlink:href="#font_2_1" transform="matrix(9.963197,0,0,-9.963197,7.9666445,94.560718)"/>
<use data-text="1" xlink:href="#font_2_1" transform="matrix(9.963197,0,0,-9.963197,59.600736,94.560718)"/>
<use data-text="2" xlink:href="#font_2_2" transform="matrix(9.963197,0,0,-9.963197,87.3544,94.560718)"/>
<use data-text="3" xlink:href="#font_2_3" transform="matrix(9.963197,0,0,-9.963197,115.10906,94.560718)"/>
<use data-text="4" xlink:href="#font_2_4" transform="matrix(9.963197,0,0,-9.963197,142.86374,94.560718)"/>
<use data-text="5" xlink:href="#font_2_5" transform="matrix(9.963197,0,0,-9.963197,170.61841,94.560718)"/>
<use data-text="&#x2212;" xlink:href="#font_1_1" transform="matrix(9.963197,0,0,-9.963197,15.960121,149.84703)"/>
<use data-text="4" xlink:href="#font_2_4" transform="matrix(9.963197,0,0,-9.963197,23.709588,149.84703)"/>
<use data-text="&#x2212;" xlink:href="#font_1_1" transform="matrix(9.963197,0,0,-9.963197,15.960121,117.56809)"/>
<use data-text="2" xlink:href="#font_2_2" transform="matrix(9.963197,0,0,-9.963197,23.709588,117.56809)"/>
<use data-text="2" xlink:href="#font_2_2" transform="matrix(9.963197,0,0,-9.963197,23.709588,53.42524)"/>
<g clip-path="url(#clip_3)">
<path transform="matrix(1.00006,0,0,-1.00006,6.5825579,163.19083)" stroke-width=".79701" stroke-linecap="butt" stroke-miterlimit="10" stroke-linejoin="miter" fill="none" stroke="#0000ff" d="M83.48082 82.13757 83.81451 82.97702 84.14824 83.58215 84.48193 84.0809 84.81563 84.51514 85.14932 84.90482 85.48303 85.26141 85.81673 85.59212 86.15044 85.90195 86.48415 86.19429 86.81784 86.47188 87.15154 86.73672 87.48523 86.99045 87.81894 87.23433 88.15265 87.46944 88.48634 87.69669 88.82004 87.91676 89.15375 88.13033 89.48744 88.33794 89.82114 88.54007 90.15485 88.73712 90.48856 88.92946 90.82225 89.1174 91.15594 89.30124 91.48965 89.48123 91.82335 89.65761 92.15704 89.8306 92.49075 90.00037 92.82446 90.1671 93.15816 90.33093 93.49185 90.49203 93.82556 90.65053 94.15926 90.80655 94.49297 90.96019 94.82666 91.11157 95.16037 91.26079 95.49406 91.40791 95.82776 91.55305 96.16145 91.69627 96.49516 91.83766 96.82887 91.97728 97.16257 92.11519 97.49628 92.25145 97.82997 92.38612 98.16367 92.51926 98.49736 92.65092 98.83109 92.78114 99.16478 92.90999 99.49847 93.03749 99.83217 93.16368 100.16588 93.2886 100.49957 93.41231 100.83327 93.5348 101.16699 93.65616 101.50069 93.77638 101.83438 93.89551 102.16808 94.01357 102.50179 94.1306 102.83548 94.24661 103.16919 94.36165 103.50288 94.47572 103.8366 94.58887 104.17029 94.70108 104.50398 94.81242 104.83769 94.92288 105.1714 95.03249 105.5051 95.14125 105.83879 95.24922 106.1725 95.3564 106.5062 95.4628 106.83989 95.56842 107.17358 95.67331 107.50731 95.77745 107.841 95.8809 108.1747 95.98364 108.5084 96.08571 108.8421 96.18709 109.1758 96.28781 109.5095 96.3879 109.84322 96.48735 110.17691 96.58617 110.5106 96.68437 110.8443 96.78198 111.17801 96.87877 111.51172 96.9752 111.84541 97.0711 112.17912 97.16643 112.51282 97.26117 112.84651 97.35542 113.1802 97.44913 113.51392 97.5423 113.84763 97.63496 114.18132 97.72714 114.51501 97.8188 114.84872 97.90997 115.18242 98.00067 115.51611 98.0909 115.84984 98.18066 116.18353 98.26997 116.51723 98.35881 116.85092 98.44725 117.18463 98.53519 117.51833 98.62273 117.85204 98.70985 118.18573 98.79654 118.51944 98.88283 118.85313 98.96869 119.18683 99.05417 119.52054 99.13925 119.85423 99.22392 120.18794 99.30824 120.52164 99.39215 120.85535 99.47568 121.18904 99.55887 121.52274 99.64168 121.85643 99.72412 122.19016 99.80623 122.52385 99.88797 122.85754 99.96935 123.19125 100.05042 123.52495 100.13113 123.85864 100.21152 124.19235 100.29155 124.52606 100.3713 124.85976 100.4507 125.19345 100.5298 125.52715 100.60855 125.86086 100.68703 126.19455 100.76515 126.52826 100.84302 126.86197 100.92056 127.19566 100.99783 127.52936 101.0748 127.86305 101.15147 128.19676 101.22787 128.53047 101.30399 128.86417 101.37979 129.19786 101.45532 129.53157 101.53061 129.86527 101.60562 130.19896 101.68036 130.53267 101.75484 130.86638 101.82904 131.20008 101.90298 131.53377 101.97667 131.86748 102.05011 132.20117 102.12329 132.53487 102.19621 132.86858 102.26894 133.20229 102.34137 133.53598 102.41357 133.86968 102.48557 134.20339 102.55725 134.53708 102.62875 134.87079 102.70001 135.20449 102.77106 135.5382 102.84186 135.87189 102.91243 136.20558 102.9828 136.53928 103.05292 136.873 103.12282 137.2067 103.19254 137.54039 103.262 137.8741 103.33128 138.2078 103.40033 138.54149 103.4692 138.87519 103.53784 139.20891 103.60628 139.5426 103.6745 139.8763 103.74254 140.20999 103.81033 140.5437 103.878 140.8774 103.94542 141.2111 104.01268 141.5448 104.07968 141.87851 104.14656 142.2122 104.21321 142.5459 104.2797 142.87961 104.346 143.2133 104.4121 143.54701 104.47803 143.8807 104.54373 144.21442 104.6093 144.54811 104.6747 144.8818 104.73987 145.21552 104.80492 145.54923 104.86975 145.88292 104.93442 146.21662 104.99893 146.55033 105.06325 146.88402 105.12744 147.21772 105.19144 147.55142 105.25525 147.88513 105.31892 148.21883 105.3824 148.55252 105.44574 148.88622 105.50893 149.21993 105.57193 149.55362 105.63477 149.88733 105.69748 150.22104 105.76003 150.55474 105.82239 150.88843 105.88463 151.22212 105.94672 151.55583 106.00864 151.88954 106.0704 152.22324 106.13202 152.55693 106.1935 152.89064 106.25482 153.22434 106.31602 153.55803 106.37703 153.89176 106.43794 154.22545 106.49869 154.55915 106.55927 154.89284 106.61975 155.22655 106.68004 155.56024 106.74025 155.89394 106.80028 156.22765 106.86018 156.56136 106.91997 156.89505 106.97958 157.22875 107.03905 157.56246 107.09843 157.89615 107.15767 158.22986 107.21677 158.56356 107.27573 158.89727 107.33456 159.23096 107.39326 159.56465 107.45184 159.89835 107.51028 160.23207 107.56863 160.56577 107.62682 160.89946 107.68488 161.23317 107.74283 161.56687 107.80064 161.90056 107.85834 162.23426 107.91592 162.56798 107.9734 162.90167 108.03073 163.23537 108.08792 163.56906 108.14503 163.90277 108.202 164.23647 108.25885 164.57018 108.3156 164.90389 108.37222 165.23758 108.42874 165.57128 108.48512 165.90497 108.5414 166.23868 108.59758 166.57239 108.65363 166.90608 108.70956 167.23978 108.7654 167.57349 108.82112 167.90718 108.87672 168.24088 108.93222 168.57459 108.98761 168.9083 109.04291 169.24199 109.09807 169.57569 109.15315 169.9094 109.20811 170.24309 109.26297 170.57678 109.3177 170.91049 109.37234 171.2442 109.42691 171.5779 109.48135 171.91159 109.53568 172.2453 109.58992 172.579 109.64404 172.9127 109.69807 173.2464 109.75201 173.58011 109.80583 173.9138 109.85957 174.2475 109.9132 174.58119 109.96672 174.9149 110.02017 175.24861 110.07352 175.5823 110.12675 175.91602 110.17989 176.24971 110.23296 176.5834 110.28592 176.9171 110.33876 177.25083 110.39154 177.58452 110.44423 177.91822 110.4968 178.2519 110.54929 178.58562 110.6017 178.91931 110.65398 179.253 110.7062 179.58673 110.75832 179.92043 110.81035 180.25412 110.86232 180.58782 110.91415 180.92153 110.96591 181.25522 111.0176 181.58893 111.06918 181.92263 111.12068 182.25634 111.17209 182.59003 111.22342 182.92372 111.27466 183.25743 111.32582 183.59114 111.3769 183.92484 111.42786 184.25853 111.47878 184.59224 111.52962 184.92594 111.58032 185.25963 111.631 185.59333 111.68155 185.92705 111.73204 186.26074 111.78244 186.59444 111.83276 186.92815 111.88301 187.26184 111.93317 187.59554 111.98322 187.92925 112.03323 188.26296 112.08316 188.59665 112.13301 188.93035 112.18277 189.26404 112.23242 189.59775 112.28206 189.93146 112.33157 190.26515 112.38101 190.59886 112.43039 190.93256 112.47969 191.26625 112.52893 191.59995 112.57806 191.93366 112.62714 192.26737 112.67612 192.60106 112.72505 192.93476 112.77388 193.26847 112.82265 193.60216 112.87134 193.93585 112.91995 194.26958 112.9685"/>
<path transform="matrix(1.00006,0,0,-1.00006,6.5825579,163.19083)" stroke-width=".79701" stroke-linecap="butt" stroke-miterlimit="10" stroke-linejoin="miter" fill="none" stroke="#0000ff" d="M83.48082 79.2466 83.81451 78.40715 84.14824 77.80202 84.48193 77.30327 84.81563 76.86903 85.14932 76.47935 85.48303 76.12276 85.81673 75.79205 86.15044 75.48222 86.48415 75.18988 86.81784 74.91231 87.15154 74.64745 87.48523 74.39374 87.81894 74.14984 88.15265 73.91473 88.48634 73.6875 88.82004 73.4674 89.15375 73.25385 89.48744 73.04623 89.82114 72.8441 90.15485 72.64705 90.48856 72.45471 90.82225 72.26678 91.15594 72.08295 91.48965 71.90294 91.82335 71.72656 92.15704 71.55357 92.49075 71.3838 92.82446 71.21709 93.15816 71.05324 93.49185 70.89214 93.82556 70.73364 94.15926 70.57762 94.49297 70.42398 94.82666 70.2726 95.16037 70.12338 95.49406 69.97626 95.82776 69.83112 96.16145 69.6879 96.49516 69.54651 96.82887 69.40689 97.16257 69.26898 97.49628 69.13272 97.82997 68.99805 98.16367 68.86491 98.49736 68.73325 98.83109 68.60303 99.16478 68.47418 99.49847 68.3467 99.83217 68.22049 100.16588 68.09557 100.49957 67.97186 100.83327 67.84937 101.16699 67.72801 101.50069 67.6078 101.83438 67.48866 102.16808 67.3706 102.50179 67.25357 102.83548 67.13756 103.16919 67.02252 103.50288 66.90845 103.8366 66.79532 104.17029 66.68309 104.50398 66.57175 104.83769 66.46129 105.1714 66.35168 105.5051 66.24292 105.83879 66.13495 106.1725 66.02779 106.5062 65.92139 106.83989 65.81575 107.17358 65.71086 107.50731 65.60672 107.841 65.50327 108.1747 65.40053 108.5084 65.29846 108.8421 65.19708 109.1758 65.09636 109.5095 64.99628 109.84322 64.89682 110.17691 64.798 110.5106 64.6998 110.8443 64.60219 111.17801 64.5054 111.51172 64.40897 111.84541 64.31306 112.17912 64.21774 112.51282 64.123 112.84651 64.02875 113.1802 63.93504 113.51392 63.84187 113.84763 63.74922 114.18132 63.65703 114.51501 63.56538 114.84872 63.4742 115.18242 63.3835 115.51611 63.29327 115.84984 63.2035 116.18353 63.1142 116.51723 63.02536 116.85092 62.93692 117.18463 62.84898 117.51833 62.76144 117.85204 62.67432 118.18573 62.58763 118.51944 62.50134 118.85313 62.41548 119.18683 62.33 119.52054 62.24492 119.85423 62.16025 120.18794 62.07593 120.52164 61.99202 120.85535 61.9085 121.18904 61.8253 121.52274 61.7425 121.85643 61.66005 122.19016 61.57794 122.52385 61.4962 122.85754 61.41483 123.19125 61.33376 123.52495 61.25304 123.85864 61.17267 124.19235 61.09262 124.52606 61.01286 124.85976 60.93347 125.19345 60.85439 125.52715 60.77562 125.86086 60.69714 126.19455 60.61902 126.52826 60.54115 126.86197 60.46361 127.19566 60.38634 127.52936 60.30937 127.86305 60.2327 128.19676 60.15631 128.53047 60.08018 128.86417 60.00438 129.19786 59.92885 129.53157 59.85356 129.86527 59.77855 130.19896 59.70381 130.53267 59.62935 130.86638 59.55513 131.20008 59.48119 131.53377 59.4075 131.86748 59.33406 132.20117 59.26088 132.53487 59.18796 132.86858 59.11523 133.20229 59.0428 133.53598 58.9706 133.86968 58.89862 134.20339 58.82692 134.53708 58.75542 134.87079 58.68416 135.20449 58.61311 135.5382 58.54231 135.87189 58.47174 136.20558 58.40137 136.53928 58.33125 136.873 58.26135 137.2067 58.19164 137.54039 58.12218 137.8741 58.05289 138.2078 57.98386 138.54149 57.91498 138.87519 57.84633 139.20891 57.7779 139.5426 57.70967 139.8763 57.64163 140.20999 57.57384 140.5437 57.50618 140.8774 57.43875 141.2111 57.3715 141.5448 57.30449 141.87851 57.23761 142.2122 57.17096 142.5459 57.10448 142.87961 57.03818 143.2133 56.97208 143.54701 56.90616 143.8807 56.84044 144.21442 56.77487 144.54811 56.70947 144.8818 56.6443 145.21552 56.57927 145.54923 56.51442 145.88292 56.44975 146.21662 56.38524 146.55033 56.32092 146.88402 56.25674 147.21772 56.19273 147.55142 56.12892 147.88513 56.06525 148.21883 56.00177 148.55252 55.93845 148.88622 55.87524 149.21993 55.81224 149.55362 55.7494 149.88733 55.68669 150.22104 55.62415 150.55474 55.56178 150.88843 55.49954 151.22212 55.43745 151.55583 55.37553 151.88954 55.31377 152.22324 55.25217 152.55693 55.19067 152.89064 55.12935 153.22434 55.06815 153.55803 55.00716 153.89176 54.94624 154.22545 54.88548 154.55915 54.8249 154.89284 54.76442 155.22655 54.70413 155.56024 54.64394 155.89394 54.5839 156.22765 54.52399 156.56136 54.46422 156.89505 54.40459 157.22875 54.34512 157.56246 54.28574 157.89615 54.2265 158.22986 54.1674 158.56356 54.10844 158.89727 54.0496 159.23096 53.9909 159.56465 53.93233 159.89835 53.87389 160.23207 53.81554 160.56577 53.75735 160.89946 53.6993 161.23317 53.64134 161.56687 53.58353 161.90056 53.52583 162.23426 53.46825 162.56798 53.41078 162.90167 53.35344 163.23537 53.29625 163.56906 53.23914 163.90277 53.18219 164.23647 53.12532 164.57018 53.06857 164.90389 53.01195 165.23758 52.95543 165.57128 52.89905 165.90497 52.84277 166.23868 52.78659 166.57239 52.73055 166.90608 52.6746 167.23978 52.61879 167.57349 52.56305 167.90718 52.50745 168.24088 52.45195 168.57459 52.39656 168.9083 52.34128 169.24199 52.2861 169.57569 52.23103 169.9094 52.17606 170.24309 52.1212 170.57678 52.06647 170.91049 52.01183 171.2442 51.95728 171.5779 51.90282 171.91159 51.8485 172.2453 51.79425 172.579 51.74013 172.9127 51.6861 173.2464 51.63216 173.58011 51.57834 173.9138 51.52461 174.2475 51.47098 174.58119 51.41745 174.9149 51.364 175.24861 51.31065 175.5823 51.25742 175.91602 51.20428 176.24971 51.15121 176.5834 51.09827 176.9171 51.04541 177.25083 50.99263 177.58452 50.93994 177.91822 50.88739 178.2519 50.83488 178.58562 50.78247 178.91931 50.7302 179.253 50.67796 179.58673 50.62585 179.92043 50.57382 180.25412 50.52185 180.58782 50.47002 180.92153 50.41826 181.25522 50.36658 181.58893 50.31499 181.92263 50.26349 182.25634 50.21208 182.59003 50.16077 182.92372 50.10951 183.25743 50.05835 183.59114 50.00726 183.92484 49.95631 184.25853 49.9054 184.59224 49.85457 184.92594 49.80385 185.25963 49.75317 185.59333 49.70262 185.92705 49.65213 186.26074 49.60173 186.59444 49.5514 186.92815 49.50116 187.26184 49.451 187.59554 49.40096 187.92925 49.35094 188.26296 49.30101 188.59665 49.25116 188.93035 49.2014 189.26404 49.15175 189.59775 49.10211 189.93146 49.0526 190.26515 49.00316 190.59886 48.95378 190.93256 48.90448 191.26625 48.85524 191.59995 48.8061 191.93366 48.75703 192.26737 48.70805 192.60106 48.65912 192.93476 48.61029 193.26847 48.56152 193.60216 48.51283 193.93585 48.46422 194.26958 48.41566"/>
</g>
<use data-text="x" xlink:href="#font_4_1" transform="matrix(9.963197,0,0,-9.963197,191.68366,78.95978)"/>
<use data-text="y" xlink:href="#font_4_2" transform="matrix(9.963197,0,0,-9.963197,37.863435,9.583603)"/>
</svg>
