<svg xmlns="http://www.w3.org/2000/svg" xmlns:xlink="http://www.w3.org/1999/xlink" version="1.1" width="108" height="56" viewBox="0 0 108 56">
<defs>
<path id="font_1_1" d="M.3039856 .6392822C.3039856 .6642761 .30299378 .666275 .27799989 .666275 .21598816 .60227969 .12399292 .60227969 .09298706 .60227969V.57128909C.11199951 .57128909 .17298889 .57128909 .22698975 .5972748V.08001709C.22698975 .042999269 .22399903 .0309906 .1309967 .0309906H.09899902V0C.1349945 .0029907227 .22399903 .0029907227 .2649994 .0029907227 .30599977 .0029907227 .3959961 .0029907227 .43199159 0V.0309906H.3999939C.30699159 .0309906 .3039856 .042999269 .3039856 .08001709V.6392822Z"/>
<path id="font_2_1" d="M.6749878 .22944641C.69299319 .22944641 .71199038 .22944641 .71199038 .25144959 .71199038 .27246095 .69200137 .27246095 .6749878 .27246095H.12298584C.10598755 .27246095 .085998538 .27246095 .085998538 .25144959 .085998538 .22944641 .10499573 .22944641 .12298584 .22944641H.6749878Z"/>
<path id="font_1_2" d="M.30499269 .35195924C.397995 .38697816 .44198609 .46006776 .44198609 .5290985 .44198609 .60606387 .35699464 .6660156 .25299073 .6660156 .14898682 .6660156 .070999149 .60705569 .070999149 .5310974 .070999149 .49809266 .09298706 .47909547 .12199402 .47909547 .15098572 .47909547 .17199707 .50009158 .17199707 .5290985 .17199707 .5640869 .147995 .57910159 .11399841 .57910159 .13999939 .6210327 .20098877 .64100649 .25 .64100649 .33299256 .64100649 .34899903 .5750885 .34899903 .52809146 .34899903 .49809266 .34298707 .45005799 .31799317 .41201783 .2869873 .36695863 .2519989 .36495973 .22299195 .36296083 .19799805 .36094667 .19599915 .36094667 .18798828 .36094667 .1789856 .35995484 .17098999 .35894776 .17098999 .34794618 .17098999 .33496095 .1789856 .33496095 .19599915 .33496095H.24299622C.32998658 .33496095 .36799623 .2646637 .36799623 .16937256 .36799623 .04145813 .2999878 .0055389406 .24899292 .0055389406 .22999573 .0055389406 .1329956 .010528564 .08799744 .0843811 .12399292 .07939148 .1519928 .10437012 .1519928 .13838196 .1519928 .17137146 .1269989 .19238281 .09799194 .19238281 .07299805 .19238281 .042999269 .17736817 .042999269 .13537598 .042999269 .046447755 .13598633-.022460938 .2519989-.022460938 .3769989-.022460938 .46998597 .06741333 .46998597 .16937256 .46998597 .25663758 .40098573 .33093263 .30499269 .35195924Z"/>
<path id="font_3_1" d="M.49198915 .40434266C.45498658 .39733888 .44400025 .3653412 .44400025 .3503418 .44400025 .33132936 .45799256 .31433106 .48298646 .31433106 .5109863 .31433106 .5379944 .33833314 .5379944 .3733368 .5379944 .41937257 .48799134 .4423828 .44099427 .4423828 .3809967 .4423828 .34599305 .38934327 .33399964 .3683319 .31498719 .41737367 .2709961 .4423828 .22299195 .4423828 .115997318 .4423828 .057998659 .31433106 .057998659 .28833009 .057998659 .2793274 .06498718 .2763214 .07199097 .2763214 .08099365 .2763214 .083999637 .2813263 .085998538 .287323 .116989139 .38633729 .18299866 .41737367 .22099304 .41737367 .25 .41737367 .27598573 .3983307 .27598573 .35133363 .27598573 .31533814 .23298645 .15530396 .21998596 .107284549 .21199036 .076293949 .18199158 .014251709 .1269989 .014251709 .10699463 .014251709 .085998538 .021270752 .07598877 .027282715 .102996829 .032287599 .12298584 .055282594 .12298584 .08128357 .12298584 .106292728 .10398865 .11729431 .084991458 .11729431 .055999757 .11729431 .02999878 .092285159 .02999878 .058288576 .02999878 .009246826 .083999637-.0107421879 .12599182-.0107421879 .18399048-.0107421879 .21798706 .03729248 .23298645 .06428528 .2579956-.0017547608 .31698609-.0107421879 .34399415-.0107421879 .45199586-.0107421879 .5089874 .11929321 .5089874 .14329529 .5089874 .14830017 .5059967 .15530396 .49598695 .15530396 .4850006 .15530396 .48399354 .1512909 .47898866 .1362915 .45700074 .06428528 .39898683 .014251709 .34700013 .014251709 .31799317 .014251709 .29100038 .032287599 .29100038 .08029175 .29100038 .10229492 .30499269 .15730286 .31399537 .1953125 .31799317 .21331787 .34498597 .32133485 .34700013 .32833863 .35899354 .3643341 .3889923 .41737367 .43998719 .41737367 .45799256 .41737367 .47698976 .41436769 .49198915 .40434266Z"/>
<path id="font_1_3" d="M.13398743 .33073426C.13398743 .43276979 .14498902 .4897766 .17199707 .54177859 .19198609 .58277896 .24099732 .64100649 .31498719 .64100649 .33499146 .64100649 .3809967 .63697817 .4039917 .6007843 .36698915 .6007843 .35099793 .5817871 .35099793 .55477908 .35099793 .5287781 .36898805 .50878909 .39698792 .50878909 .4249878 .50878909 .44400025 .5267792 .44400025 .55677798 .44400025 .612854 .4039917 .6660156 .31298829 .6660156 .18399048 .6660156 .042999269 .53878787 .042999269 .3157196 .042999269 .044555665 .16499329-.022460938 .25898744-.022460938 .36999513-.022460938 .46998597 .0705719 .46998597 .20265198 .46998597 .32972718 .37799073 .42578126 .2649994 .42578126 .20498657 .42578126 .1619873 .39076234 .13398743 .33073426M.2579956 .0055389406C.20098877 .0055389406 .16799927 .05256653 .1559906 .08157349 .13699341 .12660218 .13598633 .20965576 .13598633 .22566223 .13598633 .29270936 .16699219 .4007721 .2630005 .4007721 .2789917 .4007721 .32798768 .4007721 .3600006 .33872987 .3789978 .30070497 .3789978 .25167848 .3789978 .20365906 .3789978 .15562439 .3789978 .1065979 .3600006 .06956482 .32899476 .012542725 .2849884 .0055389406 .2579956 .0055389406Z"/>
</defs>
<path transform="matrix(1,0,0,-1.00002,35.328004,37.232427)" stroke-width=".3985" stroke-linecap="butt" stroke-miterlimit="10" stroke-linejoin="miter" fill="none" stroke="#000000" d="M0 0V28.3468H56.69362V0H0"/>
<use data-text="1" xlink:href="#font_1_1" transform="matrix(8.9664,0,0,-8.966579,48.520006,53.879758)"/>
<use data-text="1" xlink:href="#font_1_1" transform="matrix(8.9664,0,0,-8.966579,53.119768,53.879758)"/>
<use data-text="&#x2212;" xlink:href="#font_2_1" transform="matrix(8.9664,0,0,-8.966579,59.783006,53.879758)"/>
<use data-text="3" xlink:href="#font_1_2" transform="matrix(8.9664,0,0,-8.966579,68.99901,53.879758)"/>
<use data-text="x" xlink:href="#font_3_1" transform="matrix(8.9664,0,0,-8.966579,73.606,53.879758)"/>
<use data-text="6" xlink:href="#font_1_3" transform="matrix(8.9664,0,0,-8.966579,1.2170029,25.533192)"/>
<use data-text="&#x2212;" xlink:href="#font_2_1" transform="matrix(8.9664,0,0,-8.966579,7.873001,25.533192)"/>
<use data-text="3" xlink:href="#font_1_2" transform="matrix(8.9664,0,0,-8.966579,17.088006,25.533192)"/>
<use data-text="x" xlink:href="#font_3_1" transform="matrix(8.9664,0,0,-8.966579,21.696007,25.533192)"/>
<path transform="matrix(1,0,0,-1.00002,35.328004,37.232427)" stroke-width=".3985" stroke-linecap="butt" stroke-dasharray="2.98883,1.99255" stroke-miterlimit="10" stroke-linejoin="miter" fill="none" stroke="#000000" d="M14.17339 7.08669V28.3468"/>
<path transform="matrix(1,0,0,-1.00002,35.328004,37.232427)" stroke-width=".3985" stroke-linecap="butt" stroke-miterlimit="10" stroke-linejoin="miter" fill="none" stroke="#000000" d="M14.17339 28.3468V35.43349"/>
<path transform="matrix(1,0,0,-1.00002,35.328004,37.232427)" stroke-width=".3985" stroke-linecap="butt" stroke-miterlimit="10" stroke-linejoin="miter" fill="none" stroke="#000000" d="M14.17339 35.43349H70.867"/>
<path transform="matrix(1,0,0,-1.00002,35.328004,37.232427)" stroke-width=".3985" stroke-linecap="butt" stroke-miterlimit="10" stroke-linejoin="miter" fill="none" stroke="#000000" d="M70.867 35.43349V7.08669"/>
<path transform="matrix(1,0,0,-1.00002,35.328004,37.232427)" stroke-width=".3985" stroke-linecap="butt" stroke-miterlimit="10" stroke-linejoin="miter" fill="none" stroke="#000000" d="M70.867 7.08669H56.69362"/>
<path transform="matrix(1,0,0,-1.00002,35.328004,37.232427)" stroke-width=".3985" stroke-linecap="butt" stroke-dasharray="2.98883,1.99255" stroke-miterlimit="10" stroke-linejoin="miter" fill="none" stroke="#000000" d="M56.69362 7.08669H14.17339"/>
<path transform="matrix(1,0,0,-1.00002,35.328004,37.232427)" stroke-width=".3985" stroke-linecap="butt" stroke-miterlimit="10" stroke-linejoin="miter" fill="none" stroke="#000000" d="M56.69362 0 70.867 7.08669"/>
<use data-text="x" xlink:href="#font_3_1" transform="matrix(8.9664,0,0,-8.966579,101.478008,40.600496)"/>
<path transform="matrix(1,0,0,-1.00002,35.328004,37.232427)" stroke-width=".3985" stroke-linecap="butt" stroke-miterlimit="10" stroke-linejoin="miter" fill="none" stroke="#000000" d="M56.69362 28.3468 70.867 35.43349"/>
<path transform="matrix(1,0,0,-1.00002,35.328004,37.232427)" stroke-width=".3985" stroke-linecap="butt" stroke-miterlimit="10" stroke-linejoin="miter" fill="none" stroke="#000000" d="M0 28.3468 14.17339 35.43349"/>
<path transform="matrix(1,0,0,-1.00002,35.328004,37.232427)" stroke-width=".3985" stroke-linecap="butt" stroke-dasharray="2.98883,1.99255" stroke-miterlimit="10" stroke-linejoin="miter" fill="none" stroke="#000000" d="M0 0 14.17339 7.08669"/>
</svg>
