<svg xmlns="http://www.w3.org/2000/svg" xmlns:xlink="http://www.w3.org/1999/xlink" version="1.1" width="197" height="165" viewBox="0 0 197 165">
<defs>
<path id="font_1_1" d="M.6589966 .23046875C.6759949 .23046875 .69400027 .23046875 .69400027 .25045777 .69400027 .27046205 .6759949 .27046205 .6589966 .27046205H.117996219C.100997928 .27046205 .08299255 .27046205 .08299255 .25045777 .08299255 .23046875 .100997928 .23046875 .117996219 .23046875H.6589966Z"/>
<path id="font_2_3" d="M.2899933 .35191346C.37199403 .37893678 .42999269 .4490509 .42999269 .52809146 .42999269 .6100464 .34199525 .6660156 .24598694 .6660156 .14498902 .6660156 .068984989 .60606387 .068984989 .53009036 .068984989 .49710084 .09098816 .47808839 .11999512 .47808839 .15098572 .47808839 .17098999 .50009158 .17098999 .5290985 .17098999 .57910159 .12399292 .57910159 .10899353 .57910159 .13999939 .62802127 .20599365 .64100649 .24198914 .64100649 .2829895 .64100649 .33799745 .6190338 .33799745 .5290985 .33799745 .51708987 .33599855 .45906068 .30999757 .4149933 .27999879 .36691285 .24598694 .36390687 .22099304 .36291505 .21299744 .36190797 .18899536 .35990907 .18199158 .35990907 .17399597 .35890199 .16699219 .35791017 .16699219 .3479004 .16699219 .33691407 .17399597 .33691407 .19099427 .33691407H.23498535C.31698609 .33691407 .35398866 .2686615 .35398866 .17037964 .35398866 .034469606 .2849884 .0055389406 .24099732 .0055389406 .19799805 .0055389406 .12298584 .022491456 .08799744 .08137512 .12298584 .07637024 .1539917 .09837341 .1539917 .1363678 .1539917 .17237854 .1269989 .19238281 .09799194 .19238281 .07398987 .19238281 .041992189 .17837525 .041992189 .1343689 .041992189 .043441774 .1349945-.022460938 .24398804-.022460938 .3659973-.022460938 .45700074 .06838989 .45700074 .17037964 .45700074 .252594 .3939972 .33088685 .2899933 .35191346Z"/>
<path id="font_2_2" d="M.1269989 .07699585 .23298645 .18003845C.3889923 .31811524 .44898988 .3721466 .44898988 .47216798 .44898988 .5860901 .35899354 .6660156 .23699951 .6660156 .12399292 .6660156 .049987794 .57411196 .049987794 .48516847 .049987794 .4291687 .099990848 .4291687 .102996829 .4291687 .11999512 .4291687 .15499878 .44117738 .15499878 .48217774 .15499878 .5081787 .13699341 .5341797 .101989749 .5341797 .09399414 .5341797 .09199524 .5341797 .08898926 .5331726 .11199951 .59806826 .1659851 .63500979 .22399903 .63500979 .31498719 .63500979 .35798646 .5541382 .35798646 .47216798 .35798646 .39215089 .30799867 .31311036 .25299073 .25108338L.06098938 .036987306C.049987794 .025985718 .049987794 .023986817 .049987794 0H.42099L.44898988 .17404175H.42399598C.4189911 .14402771 .4119873 .1000061 .4019928 .084991458 .394989 .07699585 .32899476 .07699585 .30699159 .07699585H.1269989Z"/>
<path id="font_2_1" d="M.2939911 .64004519C.2939911 .66400149 .2939911 .6660156 .2709961 .6660156 .20899964 .60227969 .12098694 .60227969 .08898926 .60227969V.57128909C.10899353 .57128909 .16799927 .57128909 .21998596 .5972748V.07902527C.21998596 .042999269 .21699524 .0309906 .1269989 .0309906H.09498596V0C.12998963 .0029907227 .21699524 .0029907227 .25698854 .0029907227 .29699708 .0029907227 .38398744 .0029907227 .4189911 0V.0309906H.3869934C.29699708 .0309906 .2939911 .041992189 .2939911 .07902527V.64004519Z"/>
<path id="font_2_4" d="M.2939911 .16503906V.07800293C.2939911 .041992189 .2919922 .0309906 .21798706 .0309906H.19699097V0C.23799134 .0029907227 .2899933 .0029907227 .33198548 .0029907227 .37399293 .0029907227 .4269867 .0029907227 .46798707 0V.0309906H.44699098C.37298585 .0309906 .37098695 .041992189 .37098695 .07800293V.16503906H.47099305V.19602967H.37098695V.65075686C.37098695 .67074587 .37098695 .6767578 .35499574 .6767578 .34599305 .6767578 .34298707 .6767578 .33499146 .66474917L.027999878 .19602967V.16503906H.2939911M.2999878 .19602967H.055999757L.2999878 .5688019V.19602967Z"/>
<clipPath id="clip_3">
<path transform="matrix(1.00002,0,0,-1.00006,1.095665,163.19083)" d="M0 0H194.26607V161.3842H0Z"/>
</clipPath>
<path id="font_4_1" d="M.33399964 .30233766C.33999635 .32835389 .36299134 .42037965 .43299867 .42037965 .43798829 .42037965 .46199037 .42037965 .48298646 .40734864 .45498658 .402359 .43499757 .37734986 .43499757 .35334779 .43499757 .33735658 .44599916 .31835938 .47299195 .31835938 .49499513 .31835938 .5269928 .3363495 .5269928 .37635804 .5269928 .42837525 .46798707 .4423828 .43399049 .4423828 .37599183 .4423828 .34098817 .38935853 .32899476 .36634828 .3039856 .43237306 .25 .4423828 .22099304 .4423828 .116989139 .4423828 .05999756 .3133545 .05999756 .28834535 .05999756 .27833558 .069992069 .27833558 .07199097 .27833558 .07998657 .27833558 .08299255 .28033448 .084991458 .28933717 .11898804 .39535523 .18499756 .42037965 .21899414 .42037965 .23799134 .42037965 .272995 .4113617 .272995 .35334779 .272995 .32235719 .2559967 .25532533 .21899414 .11528015 .20298767 .053268434 .16799927 .011245728 .12399292 .011245728 .117996219 .011245728 .09498596 .011245728 .07398987 .024276734 .09899902 .029266358 .12098694 .05027771 .12098694 .07827759 .12098694 .105270389 .09899902 .11328125 .083999637 .11328125 .053985597 .11328125 .0289917 .08728027 .0289917 .055267335 .0289917 .009246826 .07899475-.0107421879 .12298584-.0107421879 .18899536-.0107421879 .22499085 .059280397 .22799683 .0652771 .23999024 .028274537 .27598573-.0107421879 .33599855-.0107421879 .43899537-.0107421879 .49598695 .118270877 .49598695 .14328003 .49598695 .1532898 .4869995 .1532898 .48399354 .1532898 .47499085 .1532898 .47299195 .14929199 .47099305 .14228821 .43798829 .03527832 .36999513 .011245728 .33799745 .011245728 .29899598 .011245728 .2829895 .043273927 .2829895 .07727051 .2829895 .09927368 .2889862 .121276859 .2999878 .16529846L.33399964 .30233766Z"/>
<path id="font_4_2" d="M.48599244 .38136292C.48999024 .39537049 .48999024 .39736939 .48999024 .40437318 .48999024 .42237855 .47599793 .43138124 .46099855 .43138124 .45098878 .43138124 .43499757 .42536927 .42599488 .41036988 .42399598 .405365 .41600038 .37435914 .4119873 .35635377 .40499879 .33035279 .397995 .30334474 .3919983 .27633668L.34700013 .09628296C.34298707 .08126831 .2999878 .011245728 .23399353 .011245728 .18299866 .011245728 .17199707 .055267335 .17199707 .0922699 .17199707 .1382904 .18899536 .20030213 .22299195 .28833009 .23899842 .3293457 .24299622 .3403473 .24299622 .36035157 .24299622 .405365 .21099854 .4423828 .16099549 .4423828 .06599426 .4423828 .0289917 .29733277 .0289917 .28833009 .0289917 .27833558 .038986207 .27833558 .040985109 .27833558 .050994874 .27833558 .051986696 .28033448 .056991579 .29634095 .083999637 .3903656 .12399292 .42037965 .1579895 .42037965 .1659851 .42037965 .18299866 .42037965 .18299866 .3883667 .18299866 .36335755 .17298889 .3373413 .1659851 .31834413 .12599182 .21231079 .10798645 .1552887 .10798645 .10827637 .10798645 .019256592 .17098999-.0107421879 .22999573-.0107421879 .2689972-.0107421879 .30299378 .0062561037 .33099366 .03425598 .31799317-.017745972 .30599977-.06674194 .2659912-.11973572 .23999024-.15385437 .20199585-.18309021 .1559906-.18309021 .14199829-.18309021 .09700012-.18005371 .07998657-.14074707 .09599304-.14074707 .10899353-.14074707 .12298584-.1287384 .1329956-.11973572 .14299011-.10673523 .14299011-.08773804 .14299011-.056747438 .115997318-.052734376 .10598755-.052734376 .08299255-.052734376 .049987794-.068740848 .049987794-.11773682 .049987794-.16796875 .09399414-.20507813 .1559906-.20507813 .25898744-.20507813 .3619995-.11373901 .3899994-.00074768069L.48599244 .38136292Z"/>
</defs>
<path transform="matrix(1.00002,0,0,-1.00006,1.095665,163.19083)" stroke-width=".3985" stroke-linecap="butt" stroke-miterlimit="10" stroke-linejoin="miter" fill="none" stroke="#cbcbcb" d="M38.85321 0V161.3842M58.27982 0V161.3842M77.70642 0V161.3842M116.55965 0V161.3842M135.98625 0V161.3842M155.41286 0V161.3842"/>
<path transform="matrix(1.00002,0,0,-1.00006,1.095665,163.19083)" stroke-width=".3985" stroke-linecap="butt" stroke-miterlimit="10" stroke-linejoin="miter" fill="none" stroke="#cbcbcb" d="M0 16.13841H194.26607M0 48.41525H194.26607M0 112.96893H194.26607M0 145.24578H194.26607"/>
<path transform="matrix(1.00002,0,0,-1.00006,1.095665,163.19083)" stroke-width=".19925" stroke-linecap="butt" stroke-miterlimit="10" stroke-linejoin="miter" fill="none" stroke="#929292" d="M38.85321 78.56621V82.81796M58.27982 78.56621V82.81796M77.70642 78.56621V82.81796M116.55965 78.56621V82.81796M135.98625 78.56621V82.81796M155.41286 78.56621V82.81796"/>
<path transform="matrix(1.00002,0,0,-1.00006,1.095665,163.19083)" stroke-width=".19925" stroke-linecap="butt" stroke-miterlimit="10" stroke-linejoin="miter" fill="none" stroke="#929292" d="M95.00711 16.13841H99.25894M95.00711 48.41525H99.25894M95.00711 112.96893H99.25894M95.00711 145.24578H99.25894"/>
<path transform="matrix(1.00002,0,0,-1.00006,1.095665,163.19083)" stroke-width=".3985" stroke-linecap="butt" stroke-miterlimit="10" stroke-linejoin="miter" fill="none" stroke="#000000" d="M0 80.6921H192.27355"/>
<path transform="matrix(1.00002,0,0,-1.00006,193.37305,82.49389)" d="M1.99252 0-1.19551 1.59401 0 0-1.19551-1.59401"/>
<path transform="matrix(1.00002,0,0,-1.00006,1.095665,163.19083)" stroke-width=".3985" stroke-linecap="butt" stroke-miterlimit="10" stroke-linejoin="miter" fill="none" stroke="#000000" d="M97.13303 0V159.39168"/>
<path transform="matrix(0,-1.00006,-1.00002,-0,98.230648,3.7895966)" d="M1.99252 0-1.19551 1.59401 0 0-1.19551-1.59401"/>
<use data-text="&#x2212;" xlink:href="#font_1_1" transform="matrix(9.962799,0,0,-9.963197,33.584318,94.560718)"/>
<use data-text="3" xlink:href="#font_2_3" transform="matrix(9.962799,0,0,-9.963197,41.33347,94.560718)"/>
<use data-text="&#x2212;" xlink:href="#font_1_1" transform="matrix(9.962799,0,0,-9.963197,53.011709,94.560718)"/>
<use data-text="2" xlink:href="#font_2_2" transform="matrix(9.962799,0,0,-9.963197,60.76086,94.560718)"/>
<use data-text="&#x2212;" xlink:href="#font_1_1" transform="matrix(9.962799,0,0,-9.963197,72.438098,94.560718)"/>
<use data-text="1" xlink:href="#font_2_1" transform="matrix(9.962799,0,0,-9.963197,80.18725,94.560718)"/>
<use data-text="1" xlink:href="#font_2_1" transform="matrix(9.962799,0,0,-9.963197,115.16695,94.560718)"/>
<use data-text="2" xlink:href="#font_2_2" transform="matrix(9.962799,0,0,-9.963197,134.59433,94.560718)"/>
<use data-text="3" xlink:href="#font_2_3" transform="matrix(9.962799,0,0,-9.963197,154.02072,94.560718)"/>
<use data-text="&#x2212;" xlink:href="#font_1_1" transform="matrix(9.962799,0,0,-9.963197,79.85425,149.84703)"/>
<use data-text="4" xlink:href="#font_2_4" transform="matrix(9.962799,0,0,-9.963197,87.6034,149.84703)"/>
<use data-text="&#x2212;" xlink:href="#font_1_1" transform="matrix(9.962799,0,0,-9.963197,79.85425,117.56809)"/>
<use data-text="2" xlink:href="#font_2_2" transform="matrix(9.962799,0,0,-9.963197,87.6034,117.56809)"/>
<use data-text="2" xlink:href="#font_2_2" transform="matrix(9.962799,0,0,-9.963197,87.60339,53.42524)"/>
<use data-text="4" xlink:href="#font_2_4" transform="matrix(9.962799,0,0,-9.963197,87.60339,21.146317)"/>
<g clip-path="url(#clip_3)">
</g>
<path transform="matrix(1.00002,0,0,-1.00006,1.095665,163.19083)" d="M40.84576 64.55368C40.84576 65.65414 39.95367 66.54623 38.85321 66.54623 37.75273 66.54623 36.86066 65.65414 36.86066 64.55368 36.86066 63.4532 37.75273 62.56113 38.85321 62.56113 39.95367 62.56113 40.84576 63.4532 40.84576 64.55368ZM38.85321 64.55368" fill="#0000ff"/>
<path transform="matrix(1.00002,0,0,-1.00006,1.095665,163.19083)" stroke-width=".3985" stroke-linecap="butt" stroke-miterlimit="10" stroke-linejoin="miter" fill="none" stroke="#0000ff" d="M40.84576 64.55368C40.84576 65.65414 39.95367 66.54623 38.85321 66.54623 37.75273 66.54623 36.86066 65.65414 36.86066 64.55368 36.86066 63.4532 37.75273 62.56113 38.85321 62.56113 39.95367 62.56113 40.84576 63.4532 40.84576 64.55368ZM38.85321 64.55368"/>
<path transform="matrix(1.00002,0,0,-1.00006,1.095665,163.19083)" d="M79.69897 112.96893C79.69897 114.06941 78.8069 114.96149 77.70642 114.96149 76.60596 114.96149 75.71387 114.06941 75.71387 112.96893 75.71387 111.86847 76.60596 110.97638 77.70642 110.97638 78.8069 110.97638 79.69897 111.86847 79.69897 112.96893ZM77.70642 112.96893" fill="#0000ff"/>
<path transform="matrix(1.00002,0,0,-1.00006,1.095665,163.19083)" stroke-width=".3985" stroke-linecap="butt" stroke-miterlimit="10" stroke-linejoin="miter" fill="none" stroke="#0000ff" d="M79.69897 112.96893C79.69897 114.06941 78.8069 114.96149 77.70642 114.96149 76.60596 114.96149 75.71387 114.06941 75.71387 112.96893 75.71387 111.86847 76.60596 110.97638 77.70642 110.97638 78.8069 110.97638 79.69897 111.86847 79.69897 112.96893ZM77.70642 112.96893"/>
<path transform="matrix(1.00002,0,0,-1.00006,1.095665,163.19083)" d="M137.9788 32.27684C137.9788 33.3773 137.08672 34.2694 135.98625 34.2694 134.88578 34.2694 133.9937 33.3773 133.9937 32.27684 133.9937 31.17636 134.88578 30.28429 135.98625 30.28429 137.08672 30.28429 137.9788 31.17636 137.9788 32.27684ZM135.98625 32.27684" fill="#0000ff"/>
<path transform="matrix(1.00002,0,0,-1.00006,1.095665,163.19083)" stroke-width=".3985" stroke-linecap="butt" stroke-miterlimit="10" stroke-linejoin="miter" fill="none" stroke="#0000ff" d="M137.9788 32.27684C137.9788 33.3773 137.08672 34.2694 135.98625 34.2694 134.88578 34.2694 133.9937 33.3773 133.9937 32.27684 133.9937 31.17636 134.88578 30.28429 135.98625 30.28429 137.08672 30.28429 137.9788 31.17636 137.9788 32.27684ZM135.98625 32.27684"/>
<path transform="matrix(1.00002,0,0,-1.00006,1.095665,163.19083)" d="M137.9788 145.24578C137.9788 146.34626 137.08672 147.23833 135.98625 147.23833 134.88578 147.23833 133.9937 146.34626 133.9937 145.24578 133.9937 144.14531 134.88578 143.25322 135.98625 143.25322 137.08672 143.25322 137.9788 144.14531 137.9788 145.24578ZM135.98625 145.24578" fill="#0000ff"/>
<path transform="matrix(1.00002,0,0,-1.00006,1.095665,163.19083)" stroke-width=".3985" stroke-linecap="butt" stroke-miterlimit="10" stroke-linejoin="miter" fill="none" stroke="#0000ff" d="M137.9788 145.24578C137.9788 146.34626 137.08672 147.23833 135.98625 147.23833 134.88578 147.23833 133.9937 146.34626 133.9937 145.24578 133.9937 144.14531 134.88578 143.25322 135.98625 143.25322 137.08672 143.25322 137.9788 144.14531 137.9788 145.24578ZM135.98625 145.24578"/>
<path transform="matrix(1.00002,0,0,-1.00006,1.095665,163.19083)" d="M157.40541 112.96893C157.40541 114.06941 156.51334 114.96149 155.41286 114.96149 154.3124 114.96149 153.4203 114.06941 153.4203 112.96893 153.4203 111.86847 154.3124 110.97638 155.41286 110.97638 156.51334 110.97638 157.40541 111.86847 157.40541 112.96893ZM155.41286 112.96893" fill="#0000ff"/>
<path transform="matrix(1.00002,0,0,-1.00006,1.095665,163.19083)" stroke-width=".3985" stroke-linecap="butt" stroke-miterlimit="10" stroke-linejoin="miter" fill="none" stroke="#0000ff" d="M157.40541 112.96893C157.40541 114.06941 156.51334 114.96149 155.41286 114.96149 154.3124 114.96149 153.4203 114.06941 153.4203 112.96893 153.4203 111.86847 154.3124 110.97638 155.41286 110.97638 156.51334 110.97638 157.40541 111.86847 157.40541 112.96893ZM155.41286 112.96893"/>
<path transform="matrix(1.00002,0,0,-1.00006,1.095665,163.19083)" d="M40.84576 64.55368C40.84576 65.65414 39.95367 66.54623 38.85321 66.54623 37.75273 66.54623 36.86066 65.65414 36.86066 64.55368 36.86066 63.4532 37.75273 62.56113 38.85321 62.56113 39.95367 62.56113 40.84576 63.4532 40.84576 64.55368ZM38.85321 64.55368" fill="#0000ff"/>
<path transform="matrix(1.00002,0,0,-1.00006,1.095665,163.19083)" stroke-width=".3985" stroke-linecap="butt" stroke-miterlimit="10" stroke-linejoin="miter" fill="none" stroke="#0000ff" d="M40.84576 64.55368C40.84576 65.65414 39.95367 66.54623 38.85321 66.54623 37.75273 66.54623 36.86066 65.65414 36.86066 64.55368 36.86066 63.4532 37.75273 62.56113 38.85321 62.56113 39.95367 62.56113 40.84576 63.4532 40.84576 64.55368ZM38.85321 64.55368"/>
<path transform="matrix(1.00002,0,0,-1.00006,1.095665,163.19083)" stroke-width=".3985" stroke-linecap="butt" stroke-miterlimit="10" stroke-linejoin="miter" fill="none" stroke="#0000ff" d=""/>
<use data-text="x" xlink:href="#font_4_1" transform="matrix(9.962799,0,0,-9.963197,186.18338,78.96078)"/>
<use data-text="y" xlink:href="#font_4_2" transform="matrix(9.962799,0,0,-9.963197,101.77268,9.5716099)"/>
</svg>
