<svg xmlns="http://www.w3.org/2000/svg" xmlns:xlink="http://www.w3.org/1999/xlink" version="1.1" width="204" height="171" viewBox="0 0 204 171">
<defs>
<path id="font_1_1" d="M.6589966 .23046875C.6759949 .23046875 .69400027 .23046875 .69400027 .25045777 .69400027 .27046205 .6759949 .27046205 .6589966 .27046205H.117996219C.100997928 .27046205 .08299255 .27046205 .08299255 .25045777 .08299255 .23046875 .100997928 .23046875 .117996219 .23046875H.6589966Z"/>
<path id="font_2_6" d="M.44898988 .20022583C.44898988 .3193512 .36698915 .41944886 .25898744 .41944886 .21099854 .41944886 .16799927 .40345765 .13198853 .36842347V.5637665C.1519928 .5577698 .18499756 .55078127 .21699524 .55078127 .33999635 .55078127 .4099884 .6417694 .4099884 .6547699 .4099884 .6607666 .40699769 .6657715 .3999939 .6657715 .39898683 .6657715 .39698792 .6657715 .3919983 .66278079 .37199403 .6537781 .32299806 .6337738 .2559967 .6337738 .21598816 .6337738 .16999817 .6407776 .12298584 .6617737 .114990238 .66477969 .11299133 .66477969 .11099243 .66477969 .100997928 .66477969 .100997928 .6567688 .100997928 .6407776V.34439088C.100997928 .32637025 .100997928 .31835938 .114990238 .31835938 .12199402 .31835938 .12399292 .32136537 .12799073 .32736207 .13899231 .3433838 .17599488 .39746095 .25698854 .39746095 .30899049 .39746095 .33399964 .35139466 .34199525 .33337403 .35798646 .29632569 .3600006 .25727845 .3600006 .20722962 .3600006 .17222595 .3600006 .11222839 .33599855 .07035828 .31199647 .031463624 .2749939 .0055389406 .22898865 .0055389406 .1559906 .0055389406 .09899902 .058380128 .08198547 .11723328 .084991458 .1162262 .08799744 .115234378 .09899902 .115234378 .13198853 .115234378 .14898682 .14022827 .14898682 .16423035 .14898682 .18823242 .13198853 .21322632 .09899902 .21322632 .084991458 .21322632 .049987794 .20622254 .049987794 .16023255 .049987794 .07434082 .11898804-.022460938 .23098755-.022460938 .34700013-.022460938 .44898988 .073349 .44898988 .20022583Z"/>
<path id="font_2_5" d="M.2939911 .16503906V.07800293C.2939911 .041992189 .2919922 .0309906 .21798706 .0309906H.19699097V0C.23799134 .0029907227 .2899933 .0029907227 .33198548 .0029907227 .37399293 .0029907227 .4269867 .0029907227 .46798707 0V.0309906H.44699098C.37298585 .0309906 .37098695 .041992189 .37098695 .07800293V.16503906H.47099305V.19602967H.37098695V.65075686C.37098695 .67074587 .37098695 .6767578 .35499574 .6767578 .34599305 .6767578 .34298707 .6767578 .33499146 .66474917L.027999878 .19602967V.16503906H.2939911M.2999878 .19602967H.055999757L.2999878 .5688019V.19602967Z"/>
<path id="font_2_4" d="M.2899933 .35191346C.37199403 .37893678 .42999269 .4490509 .42999269 .52809146 .42999269 .6100464 .34199525 .6660156 .24598694 .6660156 .14498902 .6660156 .068984989 .60606387 .068984989 .53009036 .068984989 .49710084 .09098816 .47808839 .11999512 .47808839 .15098572 .47808839 .17098999 .50009158 .17098999 .5290985 .17098999 .57910159 .12399292 .57910159 .10899353 .57910159 .13999939 .62802127 .20599365 .64100649 .24198914 .64100649 .2829895 .64100649 .33799745 .6190338 .33799745 .5290985 .33799745 .51708987 .33599855 .45906068 .30999757 .4149933 .27999879 .36691285 .24598694 .36390687 .22099304 .36291505 .21299744 .36190797 .18899536 .35990907 .18199158 .35990907 .17399597 .35890199 .16699219 .35791017 .16699219 .3479004 .16699219 .33691407 .17399597 .33691407 .19099427 .33691407H.23498535C.31698609 .33691407 .35398866 .2686615 .35398866 .17037964 .35398866 .034469606 .2849884 .0055389406 .24099732 .0055389406 .19799805 .0055389406 .12298584 .022491456 .08799744 .08137512 .12298584 .07637024 .1539917 .09837341 .1539917 .1363678 .1539917 .17237854 .1269989 .19238281 .09799194 .19238281 .07398987 .19238281 .041992189 .17837525 .041992189 .1343689 .041992189 .043441774 .1349945-.022460938 .24398804-.022460938 .3659973-.022460938 .45700074 .06838989 .45700074 .17037964 .45700074 .252594 .3939972 .33088685 .2899933 .35191346Z"/>
<path id="font_2_3" d="M.1269989 .07699585 .23298645 .18003845C.3889923 .31811524 .44898988 .3721466 .44898988 .47216798 .44898988 .5860901 .35899354 .6660156 .23699951 .6660156 .12399292 .6660156 .049987794 .57411196 .049987794 .48516847 .049987794 .4291687 .099990848 .4291687 .102996829 .4291687 .11999512 .4291687 .15499878 .44117738 .15499878 .48217774 .15499878 .5081787 .13699341 .5341797 .101989749 .5341797 .09399414 .5341797 .09199524 .5341797 .08898926 .5331726 .11199951 .59806826 .1659851 .63500979 .22399903 .63500979 .31498719 .63500979 .35798646 .5541382 .35798646 .47216798 .35798646 .39215089 .30799867 .31311036 .25299073 .25108338L.06098938 .036987306C.049987794 .025985718 .049987794 .023986817 .049987794 0H.42099L.44898988 .17404175H.42399598C.4189911 .14402771 .4119873 .1000061 .4019928 .084991458 .394989 .07699585 .32899476 .07699585 .30699159 .07699585H.1269989Z"/>
<path id="font_2_2" d="M.2939911 .64004519C.2939911 .66400149 .2939911 .6660156 .2709961 .6660156 .20899964 .60227969 .12098694 .60227969 .08898926 .60227969V.57128909C.10899353 .57128909 .16799927 .57128909 .21998596 .5972748V.07902527C.21998596 .042999269 .21699524 .0309906 .1269989 .0309906H.09498596V0C.12998963 .0029907227 .21699524 .0029907227 .25698854 .0029907227 .29699708 .0029907227 .38398744 .0029907227 .4189911 0V.0309906H.3869934C.29699708 .0309906 .2939911 .041992189 .2939911 .07902527V.64004519Z"/>
<path id="font_2_1" d="M.45999146 .31976319C.45999146 .39982606 .45498658 .47988893 .41999818 .5539398 .37399293 .65000918 .2919922 .6660156 .25 .6660156 .18998719 .6660156 .116989139 .64001467 .07598877 .54693606 .04399109 .47789 .038986207 .39982606 .038986207 .31976319 .038986207 .24472046 .042999269 .15464783 .083999637 .07859802 .1269989-.0024719239 .19999695-.022460938 .24899292-.022460938 .30299378-.022460938 .3789978-.0014648438 .4229889 .09359741 .45498658 .16265869 .45999146 .2407074 .45999146 .31976319M.24899292-.00047302247C.20999146-.00047302247 .15098572 .024551392 .1329956 .12062073 .12199402 .18066406 .12199402 .2727356 .12199402 .3317871 .12199402 .39582826 .12199402 .46188355 .12998963 .5159149 .14898682 .63500979 .22399903 .64401248 .24899292 .64401248 .28199769 .64401248 .34799195 .6259918 .36698915 .52693179 .3769989 .47088624 .3769989 .39482118 .3769989 .3317871 .3769989 .25672914 .3769989 .18867493 .3659973 .12461853 .35099793 .029556275 .2939911-.00047302247 .24899292-.00047302247Z"/>
<path id="font_2_8" d="M.16299439 .4569702C.116989139 .486969 .11299133 .52098086 .11299133 .5379791 .11299133 .598999 .17799378 .64100649 .24899292 .64100649 .32199098 .64100649 .38598634 .58898928 .38598634 .51698306 .38598634 .45996095 .34700013 .4119568 .2869873 .37695313L.16299439 .4569702M.30899049 .36193849C.3809967 .3989563 .42999269 .45095826 .42999269 .51698306 .42999269 .6090088 .34098817 .6660156 .25 .6660156 .1499939 .6660156 .068984989 .59199526 .068984989 .49897767 .068984989 .4809723 .070999149 .43595887 .11299133 .38894654 .12399292 .37695313 .16099549 .35194398 .18598938 .33494569 .12799073 .30592347 .041992189 .24984741 .041992189 .15072632 .041992189 .04458618 .14399719-.022460938 .24899292-.022460938 .3619995-.022460938 .45700074 .06060791 .45700074 .16773987 .45700074 .20379639 .44599916 .24885559 .4079895 .2909088 .3889923 .31193543 .37298585 .3219452 .30899049 .36193849M.20899964 .3199463 .33198548 .24183655C.3600006 .2228241 .40699769 .19277954 .40699769 .13169861 .40699769 .05760193 .33198548 .0055389406 .25 .0055389406 .1639862 .0055389406 .09199524 .067611698 .09199524 .15072632 .09199524 .20880127 .12399292 .27288819 .20899964 .3199463Z"/>
<path id="font_2_7" d="M.13198853 .327713V.35173036C.13198853 .6047821 .2559967 .64100649 .30699159 .64100649 .33099366 .64100649 .37298585 .634964 .394989 .6007538 .37998963 .6007538 .33999635 .6007538 .33999635 .5557556 .33999635 .524765 .3639984 .5097656 .38598634 .5097656 .4019928 .5097656 .43199159 .51875308 .43199159 .5577545 .43199159 .6178589 .3880005 .6660156 .30499269 .6660156 .1769867 .6660156 .041992189 .5367584 .041992189 .31570436 .041992189 .048553468 .1579895-.022460938 .25099183-.022460938 .3619995-.022460938 .45700074 .07156372 .45700074 .2036438 .45700074 .33070375 .36799623 .4267578 .25698854 .4267578 .18899536 .4267578 .1519928 .37573243 .13198853 .327713M.25099183 .0055389406C.18798828 .0055389406 .1579895 .06556702 .1519928 .080566409 .13398743 .127594 .13398743 .2076416 .13398743 .22564698 .13398743 .30369569 .1659851 .40374757 .2559967 .40374757 .27198792 .40374757 .31799317 .40374757 .34899903 .34172059 .36698915 .30470277 .36698915 .2536621 .36698915 .20463562 .36698915 .15661621 .36698915 .10658264 .34999085 .0705719 .31999208 .010528564 .27398683 .0055389406 .25099183 .0055389406Z"/>
<clipPath id="clip_3">
<path transform="matrix(1.00002,0,0,-1.00006,6.581848,166.5352)" d="M0 0H194.26607V161.39636H0Z"/>
</clipPath>
<path id="font_4_1" d="M.33399964 .30233766C.33999635 .32835389 .36299134 .42037965 .43299867 .42037965 .43798829 .42037965 .46199037 .42037965 .48298646 .40734864 .45498658 .402359 .43499757 .37734986 .43499757 .35334779 .43499757 .33735658 .44599916 .31835938 .47299195 .31835938 .49499513 .31835938 .5269928 .3363495 .5269928 .37635804 .5269928 .42837525 .46798707 .4423828 .43399049 .4423828 .37599183 .4423828 .34098817 .38935853 .32899476 .36634828 .3039856 .43237306 .25 .4423828 .22099304 .4423828 .116989139 .4423828 .05999756 .3133545 .05999756 .28834535 .05999756 .27833558 .069992069 .27833558 .07199097 .27833558 .07998657 .27833558 .08299255 .28033448 .084991458 .28933717 .11898804 .39535523 .18499756 .42037965 .21899414 .42037965 .23799134 .42037965 .272995 .4113617 .272995 .35334779 .272995 .32235719 .2559967 .25532533 .21899414 .11528015 .20298767 .053268434 .16799927 .011245728 .12399292 .011245728 .117996219 .011245728 .09498596 .011245728 .07398987 .024276734 .09899902 .029266358 .12098694 .05027771 .12098694 .07827759 .12098694 .105270389 .09899902 .11328125 .083999637 .11328125 .053985597 .11328125 .0289917 .08728027 .0289917 .055267335 .0289917 .009246826 .07899475-.0107421879 .12298584-.0107421879 .18899536-.0107421879 .22499085 .059280397 .22799683 .0652771 .23999024 .028274537 .27598573-.0107421879 .33599855-.0107421879 .43899537-.0107421879 .49598695 .118270877 .49598695 .14328003 .49598695 .1532898 .4869995 .1532898 .48399354 .1532898 .47499085 .1532898 .47299195 .14929199 .47099305 .14228821 .43798829 .03527832 .36999513 .011245728 .33799745 .011245728 .29899598 .011245728 .2829895 .043273927 .2829895 .07727051 .2829895 .09927368 .2889862 .121276859 .2999878 .16529846L.33399964 .30233766Z"/>
<path id="font_4_2" d="M.48599244 .38136292C.48999024 .39537049 .48999024 .39736939 .48999024 .40437318 .48999024 .42237855 .47599793 .43138124 .46099855 .43138124 .45098878 .43138124 .43499757 .42536927 .42599488 .41036988 .42399598 .405365 .41600038 .37435914 .4119873 .35635377 .40499879 .33035279 .397995 .30334474 .3919983 .27633668L.34700013 .09628296C.34298707 .08126831 .2999878 .011245728 .23399353 .011245728 .18299866 .011245728 .17199707 .055267335 .17199707 .0922699 .17199707 .1382904 .18899536 .20030213 .22299195 .28833009 .23899842 .3293457 .24299622 .3403473 .24299622 .36035157 .24299622 .405365 .21099854 .4423828 .16099549 .4423828 .06599426 .4423828 .0289917 .29733277 .0289917 .28833009 .0289917 .27833558 .038986207 .27833558 .040985109 .27833558 .050994874 .27833558 .051986696 .28033448 .056991579 .29634095 .083999637 .3903656 .12399292 .42037965 .1579895 .42037965 .1659851 .42037965 .18299866 .42037965 .18299866 .3883667 .18299866 .36335755 .17298889 .3373413 .1659851 .31834413 .12599182 .21231079 .10798645 .1552887 .10798645 .10827637 .10798645 .019256592 .17098999-.0107421879 .22999573-.0107421879 .2689972-.0107421879 .30299378 .0062561037 .33099366 .03425598 .31799317-.017745972 .30599977-.06674194 .2659912-.11973572 .23999024-.15385437 .20199585-.18309021 .1559906-.18309021 .14199829-.18309021 .09700012-.18005371 .07998657-.14074707 .09599304-.14074707 .10899353-.14074707 .12298584-.1287384 .1329956-.11973572 .14299011-.10673523 .14299011-.08773804 .14299011-.056747438 .115997318-.052734376 .10598755-.052734376 .08299255-.052734376 .049987794-.068740848 .049987794-.11773682 .049987794-.16796875 .09399414-.20507813 .1559906-.20507813 .25898744-.20507813 .3619995-.11373901 .3899994-.00074768069L.48599244 .38136292Z"/>
</defs>
<path transform="matrix(1.00002,0,0,-1.00006,6.581848,166.5352)" stroke-width=".3985" stroke-linecap="butt" stroke-miterlimit="10" stroke-linejoin="miter" fill="none" stroke="#cbcbcb" d="M0 0V161.39636M19.4266 0V161.39636M38.85321 0V161.39636M58.27982 0V161.39636M77.70642 0V161.39636M116.55965 0V161.39636M135.98625 0V161.39636M155.41286 0V161.39636M174.83946 0V161.39636M194.26607 0V161.39636"/>
<path transform="matrix(1.00002,0,0,-1.00006,6.581848,166.5352)" stroke-width=".3985" stroke-linecap="butt" stroke-miterlimit="10" stroke-linejoin="miter" fill="none" stroke="#cbcbcb" d="M0 0H194.26607M0 16.13963H194.26607M0 32.27927H194.26607M0 48.4189H194.26607M0 64.55853H194.26607M0 96.83781H194.26607M0 112.97745H194.26607M0 129.11708H194.26607M0 145.25672H194.26607M0 161.39636H194.26607"/>
<path transform="matrix(1.00002,0,0,-1.00006,6.581848,166.5352)" stroke-width=".19925" stroke-linecap="butt" stroke-miterlimit="10" stroke-linejoin="miter" fill="none" stroke="#929292" d="M0 78.5723V82.82404M19.4266 78.5723V82.82404M38.85321 78.5723V82.82404M58.27982 78.5723V82.82404M77.70642 78.5723V82.82404M116.55965 78.5723V82.82404M135.98625 78.5723V82.82404M155.41286 78.5723V82.82404M174.83946 78.5723V82.82404M194.26607 78.5723V82.82404"/>
<path transform="matrix(1.00002,0,0,-1.00006,6.581848,166.5352)" stroke-width=".19925" stroke-linecap="butt" stroke-miterlimit="10" stroke-linejoin="miter" fill="none" stroke="#929292" d="M95.00711 0H99.25894M95.00711 16.13963H99.25894M95.00711 32.27927H99.25894M95.00711 48.4189H99.25894M95.00711 64.55853H99.25894M95.00711 96.83781H99.25894M95.00711 112.97745H99.25894M95.00711 129.11708H99.25894M95.00711 145.25672H99.25894M95.00711 161.39636H99.25894"/>
<path transform="matrix(1.00002,0,0,-1.00006,6.581848,166.5352)" stroke-width=".3985" stroke-linecap="butt" stroke-miterlimit="10" stroke-linejoin="miter" fill="none" stroke="#000000" d="M0 80.69818H192.27355"/>
<path transform="matrix(1.00002,0,0,-1.00006,198.85924,85.832187)" d="M1.99252 0-1.19551 1.59401 0 0-1.19551-1.59401"/>
<path transform="matrix(1.00002,0,0,-1.00006,6.581848,166.5352)" stroke-width=".3985" stroke-linecap="butt" stroke-miterlimit="10" stroke-linejoin="miter" fill="none" stroke="#000000" d="M97.13303 0V159.40384"/>
<path transform="matrix(0,-1.00006,-1.00002,-0,103.71683,7.121811)" d="M1.99252 0-1.19551 1.59401 0 0-1.19551-1.59401"/>
<use data-text="&#x2212;" xlink:href="#font_1_1" transform="matrix(9.962799,0,0,-9.963197,.21672058,97.899089)"/>
<use data-text="5" xlink:href="#font_2_6" transform="matrix(9.962799,0,0,-9.963197,7.9658815,97.899089)"/>
<use data-text="&#x2212;" xlink:href="#font_1_1" transform="matrix(9.962799,0,0,-9.963197,19.644112,97.899089)"/>
<use data-text="4" xlink:href="#font_2_5" transform="matrix(9.962799,0,0,-9.963197,27.393273,97.899089)"/>
<use data-text="&#x2212;" xlink:href="#font_1_1" transform="matrix(9.962799,0,0,-9.963197,39.0705,97.899089)"/>
<use data-text="3" xlink:href="#font_2_4" transform="matrix(9.962799,0,0,-9.963197,46.81966,97.899089)"/>
<use data-text="&#x2212;" xlink:href="#font_1_1" transform="matrix(9.962799,0,0,-9.963197,58.49789,97.899089)"/>
<use data-text="2" xlink:href="#font_2_3" transform="matrix(9.962799,0,0,-9.963197,66.247058,97.899089)"/>
<use data-text="&#x2212;" xlink:href="#font_1_1" transform="matrix(9.962799,0,0,-9.963197,77.92428,97.899089)"/>
<use data-text="1" xlink:href="#font_2_2" transform="matrix(9.962799,0,0,-9.963197,85.67344,97.899089)"/>
<use data-text="1" xlink:href="#font_2_2" transform="matrix(9.962799,0,0,-9.963197,120.65313,97.899089)"/>
<use data-text="2" xlink:href="#font_2_3" transform="matrix(9.962799,0,0,-9.963197,140.08052,97.899089)"/>
<use data-text="3" xlink:href="#font_2_4" transform="matrix(9.962799,0,0,-9.963197,159.50691,97.899089)"/>
<use data-text="4" xlink:href="#font_2_5" transform="matrix(9.962799,0,0,-9.963197,178.9343,97.899089)"/>
<use data-text="5" xlink:href="#font_2_6" transform="matrix(9.962799,0,0,-9.963197,198.36069,97.899089)"/>
<use data-text="&#x2212;" xlink:href="#font_1_1" transform="matrix(9.962799,0,0,-9.963197,80.35933,169.33037)"/>
<use data-text="1" xlink:href="#font_2_2" transform="matrix(9.962799,0,0,-9.963197,88.10849,169.33037)"/>
<use data-text="0" xlink:href="#font_2_1" transform="matrix(9.962799,0,0,-9.963197,93.08989,169.33037)"/>
<use data-text="&#x2212;" xlink:href="#font_1_1" transform="matrix(9.962799,0,0,-9.963197,85.34043,153.1894)"/>
<use data-text="8" xlink:href="#font_2_8" transform="matrix(9.962799,0,0,-9.963197,93.08959,153.1894)"/>
<use data-text="&#x2212;" xlink:href="#font_1_1" transform="matrix(9.962799,0,0,-9.963197,85.34043,137.04944)"/>
<use data-text="6" xlink:href="#font_2_7" transform="matrix(9.962799,0,0,-9.963197,93.08959,137.04944)"/>
<use data-text="&#x2212;" xlink:href="#font_1_1" transform="matrix(9.962799,0,0,-9.963197,85.34043,120.90846)"/>
<use data-text="4" xlink:href="#font_2_5" transform="matrix(9.962799,0,0,-9.963197,93.08959,120.90846)"/>
<use data-text="&#x2212;" xlink:href="#font_1_1" transform="matrix(9.962799,0,0,-9.963197,85.34043,104.76849)"/>
<use data-text="2" xlink:href="#font_2_3" transform="matrix(9.962799,0,0,-9.963197,93.08959,104.76849)"/>
<use data-text="2" xlink:href="#font_2_3" transform="matrix(9.962799,0,0,-9.963197,93.08958,72.90159)"/>
<use data-text="4" xlink:href="#font_2_5" transform="matrix(9.962799,0,0,-9.963197,93.08958,56.76162)"/>
<use data-text="6" xlink:href="#font_2_7" transform="matrix(9.962799,0,0,-9.963197,93.08958,40.62065)"/>
<use data-text="8" xlink:href="#font_2_8" transform="matrix(9.962799,0,0,-9.963197,93.08958,24.47969)"/>
<use data-text="1" xlink:href="#font_2_2" transform="matrix(9.962799,0,0,-9.963197,88.10748,8.339706)"/>
<use data-text="0" xlink:href="#font_2_1" transform="matrix(9.962799,0,0,-9.963197,93.08889,8.339706)"/>
<g clip-path="url(#clip_3)">
<path transform="matrix(1.00002,0,0,-1.00006,6.581848,166.5352)" stroke-width=".79701" stroke-linecap="butt" stroke-miterlimit="10" stroke-linejoin="miter" fill="none" stroke="#0000ff" d="M38.93086 81.94759 39.32018 83.75667 39.70947 84.83293 40.0988 85.67662 40.4881 86.39221 40.87741 87.02322 41.26672 87.59296 41.65602 88.1156 42.04533 88.60042 42.43465 89.05396 42.82394 89.48119 43.21326 89.88574 43.60257 90.27054 43.99187 90.63776 44.3812 90.9894 44.77051 91.32692 45.1598 91.65166 45.54912 91.96475 45.93843 92.26709 46.32773 92.55956 46.71704 92.84279 47.10635 93.11748 47.49565 93.38416 47.88496 93.64331 48.27428 93.89542 48.66357 94.14084 49.0529 94.37994 49.44221 94.6131 49.83151 94.8405 50.22083 95.06255 50.61012 95.27937 50.99944 95.49127 51.38875 95.69843 51.77805 95.90103 52.16736 96.09932 52.55667 96.29335 52.94597 96.48338 53.3353 96.6695 53.72461 96.85184 54.1139 97.03058 54.50322 97.20578 54.89253 97.37756 55.28183 97.54605 55.67114 97.71133 56.06046 97.8735 56.44975 98.03264 56.83907 98.18884 57.22838 98.34218 57.61769 98.49272 58.007 98.64055 58.39632 98.78572 58.78561 98.9283 59.17493 99.06834 59.56424 99.20593 59.95354 99.34111 60.34285 99.47389 60.73215 99.60437 61.12146 99.73259 61.51077 99.85857 61.90007 99.98239 62.2894 100.10405 62.67871 100.22362 63.06801 100.34114 63.45732 100.45662 63.84663 100.57013 64.23593 100.68167 64.62524 100.79132 65.01456 100.89906 65.40385 101.00493 65.79317 101.10901 66.18248 101.21124 66.5718 101.31172 66.9611 101.41043 67.35042 101.50743 67.73972 101.60274 68.12903 101.69635 68.51834 101.7883 68.90764 101.87865 69.29695 101.96736 69.68626 102.05447 70.07556 102.14003 70.46487 102.22403 70.85419 102.30649 71.2435 102.38744 71.63281 102.46686 72.02211 102.5448 72.41142 102.62128 72.80074 102.69633 73.19003 102.7699 73.57935 102.84207 73.96866 102.91281 74.35796 102.98218 74.74727 103.05013 75.13658 103.11673 75.5259 103.18196 75.9152 103.24583 76.30452 103.3084 76.69382 103.36961 77.08313 103.4295 77.47244 103.48813 77.86174 103.54544 78.25105 103.60144 78.64037 103.65619 79.02966 103.70967 79.41898 103.76189 79.8083 103.81285 80.1976 103.8626 80.58691 103.91107 80.97621 103.95837 81.36552 104.00443 81.75484 104.04926 82.14413 104.0929 82.53345 104.13535 82.92276 104.17659 83.31207 104.21666 83.70139 104.25554 84.0907 104.29326 84.48 104.32982 84.86931 104.36519 85.25862 104.39943 85.64792 104.43253 86.03723 104.46446 86.42654 104.49524 86.81584 104.52489 87.20517 104.55342 87.59448 104.5808 87.98378 104.60709 88.3731 104.63223 88.7624 104.65625 89.1517 104.67917 89.54102 104.70097 89.93031 104.72166 90.31963 104.74126 90.70895 104.75974 91.09825 104.77711 91.48756 104.79341 91.87688 104.8086 92.26617 104.8227 92.65549 104.83571 93.0448 104.84763 93.4341 104.85844 93.82341 104.8682 94.21274 104.87685 94.60204 104.88441 94.99135 104.8909 95.38066 104.89632 95.76996 104.90063 96.15927 104.90387 96.54858 104.90605 96.93788 104.90712 97.3272 104.90714 97.71652 104.90605 98.10582 104.90388 98.49513 104.90065 98.88445 104.89633 99.27374 104.89091 99.66306 104.88443 100.05235 104.87688 100.44167 104.86823 100.83098 104.85847 101.22029 104.84766 101.6096 104.83574 101.99892 104.82272 102.38821 104.80865 102.77753 104.79344 103.16684 104.77716 103.55614 104.7598 103.94545 104.7413 104.33476 104.72171 104.72408 104.70102 105.11339 104.67923 105.5027 104.65631 105.892 104.6323 106.28131 104.60715 106.67062 104.58087 107.05992 104.55348 107.44923 104.52496 107.83855 104.49532 108.22786 104.46454 108.61717 104.4326 109.00648 104.39952 109.39578 104.3653 109.7851 104.32991 110.1744 104.29337 110.5637 104.25565 110.95302 104.21677 111.34232 104.17668 111.73163 104.13544 112.12096 104.093 112.51025 104.04938 112.89957 104.00453 113.28888 103.95848 113.67818 103.9112 114.06749 103.86272 114.4568 103.81299 114.8461 103.76202 115.23541 103.70981 115.62474 103.65633 116.01404 103.60158 116.40335 103.54556 116.79266 103.48827 117.18196 103.42967 117.57127 103.36977 117.96059 103.30855 118.34988 103.246 118.7392 103.18213 119.12851 103.1169 119.5178 103.05031 119.90714 102.98235 120.29643 102.91298 120.68575 102.84224 121.07506 102.7701 121.46436 102.6965 121.85367 102.62148 122.24298 102.545 122.63228 102.46706 123.02159 102.38763 123.4109 102.30669 123.8002 102.22424 124.18951 102.14023 124.57884 102.05469 124.96814 101.96758 125.35745 101.87886 125.74677 101.78853 126.13606 101.69658 126.52538 101.60297 126.91469 101.50768 127.30399 101.41068 127.6933 101.31197 128.08261 101.21149 128.47191 101.10925 128.86124 101.0052 129.25055 100.89932 129.63985 100.79156 130.02916 100.68195 130.41846 100.57042 130.80777 100.45691 131.19709 100.34143 131.58638 100.22392 131.9757 100.10435 132.365 99.98268 132.7543 99.85887 133.14363 99.7329 133.53295 99.60469 133.92224 99.47421 134.31156 99.34143 134.70087 99.20628 135.09017 99.0687 135.47948 98.92867 135.86879 98.78607 136.25809 98.64091 136.6474 98.4931 137.03672 98.34256 137.42601 98.18924 137.81534 98.03304 138.20465 97.87389 138.59395 97.71173 138.98326 97.54645 139.37258 97.37796 139.76187 97.20619 140.15119 97.03099 140.54048 96.8523 140.9298 96.66995 141.3191 96.48383 141.7084 96.29382 142.09774 96.0998 142.48705 95.90154 142.87635 95.69894 143.26566 95.49178 143.65497 95.27989 144.04427 95.06306 144.43358 94.84108 144.82289 94.61363 145.21219 94.38054 145.6015 94.14142 145.99082 93.89603 146.38013 93.64395 146.76944 93.3848 147.15876 93.11815 147.54805 92.84346 147.93737 92.56024 148.32668 92.26784 148.71598 91.9655 149.10529 91.65247 149.4946 91.32773 149.8839 90.99023 150.27321 90.63867 150.6625 90.27145 151.05184 89.88675 151.44115 89.48221 151.83045 89.05502 152.21976 88.60161 152.60907 88.11684 152.99837 87.59433 153.38768 87.02467 153.777 86.39383 154.16629 85.67856 154.5556 84.83519 154.94492 83.75987 155.33423 81.95515"/>
<path transform="matrix(1.00002,0,0,-1.00006,6.581848,166.5352)" stroke-width=".79701" stroke-linecap="butt" stroke-miterlimit="10" stroke-linejoin="miter" fill="none" stroke="#0000ff" d="M38.93086 79.44876 39.32018 77.63966 39.70947 76.5634 40.0988 75.71971 40.4881 75.00412 40.87741 74.37311 41.26672 73.80338 41.65602 73.28073 42.04533 72.79591 42.43465 72.34238 42.82394 71.91515 43.21326 71.51059 43.60257 71.1258 43.99187 70.75858 44.3812 70.40694 44.77051 70.06941 45.1598 69.74467 45.54912 69.43158 45.93843 69.12924 46.32773 68.83679 46.71704 68.55354 47.10635 68.27885 47.49565 68.01219 47.88496 67.75302 48.27428 67.50092 48.66357 67.2555 49.0529 67.01639 49.44221 66.78323 49.83151 66.55583 50.22083 66.3338 50.61012 66.11696 50.99944 65.90508 51.38875 65.6979 51.77805 65.4953 52.16736 65.29701 52.55667 65.10298 52.94597 64.91296 53.3353 64.72684 53.72461 64.5445 54.1139 64.36577 54.50322 64.19055 54.89253 64.01878 55.28183 63.85028 55.67114 63.685 56.06046 63.52283 56.44975 63.3637 56.83907 63.20749 57.22838 63.05415 57.61769 62.90361 58.007 62.75578 58.39632 62.61061 58.78561 62.46803 59.17493 62.32799 59.56424 62.1904 59.95354 62.05522 60.34285 61.92244 60.73215 61.79196 61.12146 61.66374 61.51077 61.53777 61.90007 61.41394 62.2894 61.29228 62.67871 61.17273 63.06801 61.05519 63.45732 60.93971 63.84663 60.8262 64.23593 60.71466 64.62524 60.60503 65.01456 60.49727 65.40385 60.3914 65.79317 60.28732 66.18248 60.18509 66.5718 60.08461 66.9611 59.9859 67.35042 59.8889 67.73972 59.7936 68.12903 59.69998 68.51834 59.60803 68.90764 59.51768 69.29695 59.42897 69.68626 59.34186 70.07556 59.2563 70.46487 59.1723 70.85419 59.08984 71.2435 59.00891 71.63281 58.92947 72.02211 58.85153 72.41142 58.77505 72.80074 58.7 73.19003 58.62643 73.57935 58.55426 73.96866 58.48352 74.35796 58.41415 74.74727 58.3462 75.13658 58.2796 75.5259 58.21437 75.9152 58.1505 76.30452 58.08794 76.69382 58.02672 77.08313 57.96683 77.47244 57.9082 77.86174 57.85089 78.25105 57.79489 78.64037 57.74014 79.02966 57.68666 79.41898 57.63445 79.8083 57.58348 80.1976 57.53374 80.58691 57.48526 80.97621 57.43796 81.36552 57.39192 81.75484 57.34709 82.14413 57.30344 82.53345 57.261 82.92276 57.21974 83.31207 57.17969 83.70139 57.1408 84.0907 57.10307 84.48 57.06651 84.86931 57.03114 85.25862 56.9969 85.64792 56.9638 86.03723 56.93187 86.42654 56.9011 86.81584 56.87144 87.20517 56.84291 87.59448 56.81554 87.98378 56.78925 88.3731 56.7641 88.7624 56.74008 89.1517 56.71716 89.54102 56.69536 89.93031 56.67467 90.31963 56.65508 90.70895 56.63661 91.09825 56.61922 91.48756 56.60292 91.87688 56.58774 92.26617 56.57364 92.65549 56.56062 93.0448 56.5487 93.4341 56.53789 93.82341 56.52814 94.21274 56.51949 94.60204 56.51192 94.99135 56.50543 95.38066 56.50002 95.76996 56.4957 96.15927 56.49246 96.54858 56.49028 96.93788 56.48923 97.3272 56.48921 97.71652 56.49028 98.10582 56.49245 98.49513 56.49568 98.88445 56.5 99.27374 56.50542 99.66306 56.5119 100.05235 56.51945 100.44167 56.5281 100.83098 56.53786 101.22029 56.54868 101.6096 56.5606 101.99892 56.57361 102.38821 56.58769 102.77753 56.60289 103.16684 56.61917 103.55614 56.63655 103.94545 56.65503 104.33476 56.67462 104.72408 56.69531 105.11339 56.7171 105.5027 56.74002 105.892 56.76404 106.28131 56.78918 106.67062 56.81546 107.05992 56.84285 107.44923 56.87137 107.83855 56.90102 108.22786 56.9318 108.61717 56.96373 109.00648 56.99681 109.39578 57.03104 109.7851 57.06642 110.1744 57.10297 110.5637 57.14069 110.95302 57.17958 111.34232 57.21965 111.73163 57.2609 112.12096 57.30333 112.51025 57.34697 112.89957 57.39182 113.28888 57.43785 113.67818 57.48514 114.06749 57.53362 114.4568 57.58334 114.8461 57.63431 115.23541 57.68652 115.62474 57.74 116.01404 57.79475 116.40335 57.85077 116.79266 57.90807 117.18196 57.96666 117.57127 58.02657 117.96059 58.08778 118.34988 58.15033 118.7392 58.2142 119.12851 58.27943 119.5178 58.34602 119.90714 58.41399 120.29643 58.48335 120.68575 58.5541 121.07506 58.62624 121.46436 58.69983 121.85367 58.77486 122.24298 58.85133 122.63228 58.92928 123.02159 59.00871 123.4109 59.08965 123.8002 59.1721 124.18951 59.2561 124.57884 59.34164 124.96814 59.42876 125.35745 59.51747 125.74677 59.6078 126.13606 59.69975 126.52538 59.79337 126.91469 59.88866 127.30399 59.98566 127.6933 60.08437 128.08261 60.18486 128.47191 60.28708 128.86124 60.39113 129.25055 60.49701 129.63985 60.60477 130.02916 60.71439 130.41846 60.82593 130.80777 60.93942 131.19709 61.0549 131.58638 61.17241 131.9757 61.29198 132.365 61.41367 132.7543 61.53746 133.14363 61.66344 133.53295 61.79164 133.92224 61.92212 134.31156 62.05492 134.70087 62.19005 135.09017 62.32764 135.47948 62.46767 135.86879 62.61028 136.25809 62.75542 136.6474 62.90323 137.03672 63.05377 137.42601 63.20709 137.81534 63.3633 138.20465 63.52245 138.59395 63.6846 138.98326 63.84988 139.37258 64.01837 139.76187 64.19016 140.15119 64.36534 140.54048 64.54404 140.9298 64.72638 141.3191 64.9125 141.7084 65.10251 142.09774 65.29655 142.48705 65.4948 142.87635 65.69739 143.26566 65.90456 143.65497 66.11644 144.04427 66.33327 144.43358 66.55525 144.82289 66.7827 145.21219 67.01581 145.6015 67.25491 145.99082 67.5003 146.38013 67.75238 146.76944 68.01154 147.15876 68.27818 147.54805 68.55287 147.93737 68.83609 148.32668 69.1285 148.71598 69.43083 149.10529 69.74387 149.4946 70.0686 149.8839 70.4061 150.27321 70.75766 150.6625 71.12488 151.05184 71.50958 151.44115 71.91412 151.83045 72.34131 152.21976 72.79472 152.60907 73.2795 152.99837 73.80202 153.38768 74.37166 153.777 75.0025 154.16629 75.71777 154.5556 76.56114 154.94492 77.63646 155.33423 79.44118"/>
</g>
<use data-text="x" xlink:href="#font_4_1" transform="matrix(9.962799,0,0,-9.963197,191.66655,82.301158)"/>
<use data-text="y" xlink:href="#font_4_2" transform="matrix(9.962799,0,0,-9.963197,107.25486,12.903992)"/>
</svg>
